<svg xmlns="http://www.w3.org/2000/svg" xmlns:xlink="http://www.w3.org/1999/xlink" width="500" zoomAndPan="magnify" viewBox="0 0 375 127.500001" height="170" preserveAspectRatio="xMidYMid meet" version="1.0"><defs><g/></defs><g fill="#8c52ff" fill-opacity="1"><g transform="translate(4.392007, 70.037157)"><g><path d="M 2.972656 0 L 20.402344 0 L 20.402344 -12.609375 L 25.058594 -16.625 L 35.902344 0 L 55.257812 0 L 36.867188 -25.863281 L 54.9375 -41.445312 L 34.296875 -41.445312 L 20.480469 -28.914062 L 20.402344 -28.914062 L 20.402344 -59.917969 L 2.972656 -59.917969 Z M 2.972656 0 "/></g></g></g><g fill="#8c52ff" fill-opacity="1"><g transform="translate(59.643003, 70.037157)"><g><path d="M 32.609375 1.445312 C 42.488281 1.445312 51.726562 -1.445312 56.304688 -5.621094 L 49.796875 -13.734375 C 46.425781 -11.164062 40 -9.398438 33.652344 -9.398438 C 26.828125 -9.398438 21.125 -11.726562 19.757812 -16.546875 L 55.660156 -16.546875 C 56.144531 -17.992188 56.304688 -19.917969 56.304688 -21.527344 C 56.304688 -34.457031 45.703125 -42.96875 29.558594 -42.96875 C 12.929688 -42.96875 1.605469 -33.976562 1.605469 -20.800781 C 1.605469 -7.390625 14.214844 1.445312 32.609375 1.445312 Z M 19.515625 -24.578125 C 20.078125 -29.316406 24.175781 -32.527344 29.476562 -32.527344 C 34.699219 -32.527344 38.632812 -29.316406 38.792969 -24.578125 Z M 19.515625 -24.578125 "/></g></g></g><g fill="#8c52ff" fill-opacity="1"><g transform="translate(118.266884, 70.037157)"><g><path d="M 23.132812 18.3125 C 42.488281 18.3125 55.257812 8.753906 55.257812 -5.945312 L 55.257812 -41.445312 L 37.832031 -41.445312 L 37.832031 -21.285156 C 37.832031 -15.261719 34.054688 -11.40625 28.433594 -11.40625 C 23.535156 -11.40625 20.402344 -15.019531 20.402344 -20.480469 L 20.402344 -41.445312 L 2.972656 -41.445312 L 2.972656 -17.75 C 2.890625 -6.988281 9.960938 0.320312 21.125 0.320312 C 28.914062 0.320312 35.339844 -3.695312 37.75 -10.121094 L 37.832031 -10.121094 L 37.832031 -6.667969 C 37.832031 0.5625 31.484375 5.222656 21.6875 5.222656 C 15.421875 5.222656 8.191406 2.890625 3.210938 -0.402344 L -1.765625 11.726562 C 3.855469 15.582031 13.652344 18.3125 23.132812 18.3125 Z M 23.132812 18.3125 "/></g></g></g><g fill="#8c52ff" fill-opacity="1"><g transform="translate(176.569536, 70.037157)"><g><path d="M 4.097656 0 L 45.300781 0 C 59.113281 0 66.90625 -5.78125 66.90625 -15.824219 C 66.90625 -22.8125 62.890625 -27.628906 55.820312 -29.234375 L 55.820312 -29.398438 C 62.085938 -31.164062 65.621094 -35.660156 65.621094 -41.765625 C 65.621094 -51.804688 57.75 -57.507812 43.933594 -57.507812 L 4.097656 -57.507812 Z M 23.453125 -34.296875 L 23.453125 -45.539062 L 39.035156 -45.539062 C 43.613281 -45.539062 46.265625 -43.53125 46.265625 -40 C 46.265625 -36.382812 43.613281 -34.296875 39.035156 -34.296875 Z M 23.453125 -11.96875 L 23.453125 -24.015625 L 39.839844 -24.015625 C 44.738281 -24.015625 47.546875 -21.765625 47.546875 -17.832031 C 47.546875 -14.136719 44.738281 -11.96875 39.839844 -11.96875 Z M 23.453125 -11.96875 "/></g></g></g><g fill="#8c52ff" fill-opacity="1"><g transform="translate(245.392369, 70.037157)"><g><path d="M 18.792969 1.125 C 28.03125 1.125 35.339844 -2.652344 38.472656 -8.433594 L 38.554688 -8.433594 L 38.714844 -7.390625 C 39.515625 -2.328125 44.816406 1.125 52.207031 1.125 C 57.507812 1.125 62.648438 -0.160156 65.539062 -2.730469 L 62.570312 -10.84375 C 61.445312 -9.878906 59.835938 -9.316406 58.550781 -9.316406 C 56.625 -9.316406 55.5 -10.523438 55.5 -12.53125 L 55.5 -26.105469 C 55.5 -36.707031 45.539062 -42.96875 29.796875 -42.96875 C 17.109375 -42.96875 6.503906 -38.070312 2.167969 -30.601562 L 12.289062 -24.820312 C 16.546875 -29.234375 23.292969 -32.289062 30.199219 -32.289062 C 35.097656 -32.289062 38.390625 -30.601562 38.390625 -28.191406 C 38.390625 -26.988281 37.269531 -26.105469 35.5 -25.941406 L 24.09375 -24.820312 C 9.558594 -23.453125 1.285156 -18.070312 1.285156 -10.28125 C 1.285156 -3.132812 8.113281 1.125 18.792969 1.125 Z M 25.621094 -9.558594 C 21.363281 -9.558594 18.714844 -10.84375 18.714844 -12.929688 C 18.714844 -15.019531 21.285156 -16.546875 26.988281 -17.027344 L 38.152344 -18.070312 L 38.152344 -17.269531 C 38.152344 -12.769531 33.089844 -9.558594 25.621094 -9.558594 Z M 25.621094 -9.558594 "/></g></g></g><g fill="#8c52ff" fill-opacity="1"><g transform="translate(311.083244, 70.037157)"><g><path d="M 23.132812 18.3125 C 42.488281 18.3125 55.257812 8.753906 55.257812 -5.945312 L 55.257812 -41.445312 L 37.832031 -41.445312 L 37.832031 -21.285156 C 37.832031 -15.261719 34.054688 -11.40625 28.433594 -11.40625 C 23.535156 -11.40625 20.402344 -15.019531 20.402344 -20.480469 L 20.402344 -41.445312 L 2.972656 -41.445312 L 2.972656 -17.75 C 2.890625 -6.988281 9.960938 0.320312 21.125 0.320312 C 28.914062 0.320312 35.339844 -3.695312 37.75 -10.121094 L 37.832031 -10.121094 L 37.832031 -6.667969 C 37.832031 0.5625 31.484375 5.222656 21.6875 5.222656 C 15.421875 5.222656 8.191406 2.890625 3.210938 -0.402344 L -1.765625 11.726562 C 3.855469 15.582031 13.652344 18.3125 23.132812 18.3125 Z M 23.132812 18.3125 "/></g></g></g><g fill="#8c52ff" fill-opacity="1"><g transform="translate(105.441405, 116.197224)"><g><path d="M 1.109375 0 L 6.359375 0 L 6.359375 -4.3125 L 8.253906 -6.074219 L 11.976562 0 L 18.3125 0 L 11.847656 -9.496094 L 18.25 -15.59375 L 11.78125 -15.59375 L 6.402344 -10.167969 L 6.359375 -10.191406 L 6.359375 -15.59375 L 1.109375 -15.59375 Z M 1.109375 0 "/></g></g></g><g fill="#8c52ff" fill-opacity="1"><g transform="translate(123.772084, 116.197224)"><g><path d="M 8.839844 0.390625 C 11.519531 0.390625 14.023438 -0.390625 15.265625 -1.523438 L 13.5 -3.722656 C 12.585938 -3.027344 10.84375 -2.546875 9.125 -2.546875 C 7.273438 -2.546875 5.726562 -3.179688 5.355469 -4.484375 L 15.089844 -4.484375 C 15.222656 -4.878906 15.265625 -5.402344 15.265625 -5.835938 C 15.265625 -9.34375 12.390625 -11.648438 8.015625 -11.648438 C 3.507812 -11.648438 0.433594 -9.210938 0.433594 -5.640625 C 0.433594 -2.003906 3.855469 0.390625 8.839844 0.390625 Z M 5.292969 -6.664062 C 5.445312 -7.949219 6.554688 -8.820312 7.992188 -8.820312 C 9.40625 -8.820312 10.472656 -7.949219 10.519531 -6.664062 Z M 5.292969 -6.664062 "/></g></g></g><g fill="#8c52ff" fill-opacity="1"><g transform="translate(139.664473, 116.197224)"><g><path d="M 6.273438 4.964844 C 11.519531 4.964844 14.980469 2.375 14.980469 -1.613281 L 14.980469 -11.238281 L 10.257812 -11.238281 L 10.257812 -5.769531 C 10.257812 -4.136719 9.234375 -3.09375 7.707031 -3.09375 C 6.378906 -3.09375 5.53125 -4.070312 5.53125 -5.554688 L 5.53125 -11.238281 L 0.804688 -11.238281 L 0.804688 -4.8125 C 0.785156 -1.894531 2.699219 0.0859375 5.726562 0.0859375 C 7.839844 0.0859375 9.582031 -1 10.234375 -2.742188 L 10.257812 -2.742188 L 10.257812 -1.808594 C 10.257812 0.152344 8.535156 1.414062 5.878906 1.414062 C 4.179688 1.414062 2.222656 0.785156 0.871094 -0.109375 L -0.480469 3.179688 C 1.046875 4.226562 3.703125 4.964844 6.273438 4.964844 Z M 6.273438 4.964844 "/></g></g></g><g fill="#8c52ff" fill-opacity="1"><g transform="translate(155.469778, 116.197224)"><g><path d="M 10.429688 0.304688 C 13.804688 0.304688 16.050781 -2.023438 16.050781 -5.617188 C 16.050781 -9.234375 13.804688 -11.5625 10.429688 -11.5625 C 8.1875 -11.5625 6.359375 -10.472656 5.554688 -8.625 L 5.53125 -8.625 L 5.53125 -16.246094 L 0.804688 -16.246094 L 0.804688 0 L 4.8125 0 L 5.507812 -2.613281 L 5.53125 -2.613281 C 6.316406 -0.761719 8.167969 0.304688 10.429688 0.304688 Z M 8.339844 -3.15625 C 6.554688 -3.15625 5.355469 -4.179688 5.355469 -5.617188 C 5.355469 -7.054688 6.554688 -8.078125 8.339844 -8.078125 C 10.125 -8.078125 11.324219 -7.054688 11.324219 -5.617188 C 11.324219 -4.179688 10.125 -3.15625 8.339844 -3.15625 Z M 8.339844 -3.15625 "/></g></g></g><g fill="#8c52ff" fill-opacity="1"><g transform="translate(171.949968, 116.197224)"><g><path d="M 8.167969 0.390625 C 12.828125 0.390625 15.875 -1.980469 15.875 -5.617188 C 15.875 -9.253906 12.828125 -11.648438 8.167969 -11.648438 C 3.507812 -11.648438 0.433594 -9.253906 0.433594 -5.617188 C 0.433594 -1.980469 3.507812 0.390625 8.167969 0.390625 Z M 8.167969 -2.832031 C 6.292969 -2.832031 5.117188 -3.917969 5.117188 -5.617188 C 5.117188 -7.316406 6.292969 -8.40625 8.167969 -8.40625 C 10.015625 -8.40625 11.191406 -7.316406 11.191406 -5.617188 C 11.191406 -3.917969 10.015625 -2.832031 8.167969 -2.832031 Z M 8.167969 -2.832031 "/></g></g></g><g fill="#8c52ff" fill-opacity="1"><g transform="translate(188.256006, 116.197224)"><g><path d="M 5.09375 0.304688 C 7.601562 0.304688 9.582031 -0.71875 10.429688 -2.285156 L 10.453125 -2.285156 L 10.496094 -2.003906 C 10.714844 -0.632812 12.152344 0.304688 14.15625 0.304688 C 15.59375 0.304688 16.984375 -0.0429688 17.769531 -0.742188 L 16.964844 -2.941406 C 16.660156 -2.679688 16.222656 -2.527344 15.875 -2.527344 C 15.351562 -2.527344 15.046875 -2.851562 15.046875 -3.398438 L 15.046875 -7.078125 C 15.046875 -9.953125 12.347656 -11.648438 8.078125 -11.648438 C 4.636719 -11.648438 1.765625 -10.320312 0.589844 -8.296875 L 3.332031 -6.730469 C 4.484375 -7.925781 6.316406 -8.753906 8.1875 -8.753906 C 9.515625 -8.753906 10.410156 -8.296875 10.410156 -7.644531 C 10.410156 -7.316406 10.105469 -7.078125 9.625 -7.035156 L 6.53125 -6.730469 C 2.589844 -6.359375 0.347656 -4.898438 0.347656 -2.789062 C 0.347656 -0.847656 2.199219 0.304688 5.09375 0.304688 Z M 6.945312 -2.589844 C 5.792969 -2.589844 5.074219 -2.941406 5.074219 -3.507812 C 5.074219 -4.070312 5.769531 -4.484375 7.316406 -4.617188 L 10.34375 -4.898438 L 10.34375 -4.683594 C 10.34375 -3.460938 8.972656 -2.589844 6.945312 -2.589844 Z M 6.945312 -2.589844 "/></g></g></g><g fill="#8c52ff" fill-opacity="1"><g transform="translate(206.064193, 116.197224)"><g><path d="M 9.277344 -11.5625 C 7.578125 -11.5625 6.074219 -10.582031 5.355469 -8.992188 L 5.335938 -8.992188 L 4.660156 -11.238281 L 0.804688 -11.238281 L 0.804688 0 L 5.53125 0 L 5.53125 -5.597656 C 5.53125 -7.382812 6.273438 -8.492188 7.449219 -8.492188 C 8.40625 -8.492188 9.058594 -7.578125 9.125 -6.097656 L 13.285156 -7.011719 C 13.066406 -9.820312 11.519531 -11.5625 9.277344 -11.5625 Z M 9.277344 -11.5625 "/></g></g></g><g fill="#8c52ff" fill-opacity="1"><g transform="translate(219.561844, 116.197224)"><g><path d="M 6.054688 0.304688 C 8.320312 0.304688 10.191406 -0.761719 10.953125 -2.613281 L 10.976562 -2.613281 L 11.671875 0 L 15.679688 0 L 15.679688 -16.246094 L 10.953125 -16.246094 L 10.953125 -8.625 L 10.933594 -8.625 C 10.148438 -10.472656 8.296875 -11.5625 6.054688 -11.5625 C 2.699219 -11.5625 0.433594 -9.234375 0.433594 -5.617188 C 0.433594 -2.023438 2.699219 0.304688 6.054688 0.304688 Z M 8.144531 -3.15625 C 6.378906 -3.15625 5.160156 -4.179688 5.160156 -5.617188 C 5.160156 -7.054688 6.359375 -8.078125 8.144531 -8.078125 C 9.929688 -8.078125 11.128906 -7.054688 11.128906 -5.617188 C 11.128906 -4.179688 9.929688 -3.15625 8.144531 -3.15625 Z M 8.144531 -3.15625 "/></g></g></g><g fill="#8c52ff" fill-opacity="1"><g transform="translate(236.042035, 116.197224)"><g/></g></g><g fill="#8c52ff" fill-opacity="1"><g transform="translate(240.700893, 116.197224)"><g><path d="M 1.109375 0 L 12.28125 0 C 16.027344 0 18.140625 -1.566406 18.140625 -4.289062 C 18.140625 -6.183594 17.050781 -7.492188 15.132812 -7.925781 L 15.132812 -7.96875 C 16.832031 -8.449219 17.792969 -9.667969 17.792969 -11.324219 C 17.792969 -14.046875 15.65625 -15.59375 11.910156 -15.59375 L 1.109375 -15.59375 Z M 6.359375 -9.296875 L 6.359375 -12.347656 L 10.582031 -12.347656 C 11.824219 -12.347656 12.542969 -11.804688 12.542969 -10.84375 C 12.542969 -9.863281 11.824219 -9.296875 10.582031 -9.296875 Z M 6.359375 -3.246094 L 6.359375 -6.511719 L 10.800781 -6.511719 C 12.128906 -6.511719 12.890625 -5.902344 12.890625 -4.835938 C 12.890625 -3.832031 12.128906 -3.246094 10.800781 -3.246094 Z M 6.359375 -3.246094 "/></g></g></g><g fill="#8c52ff" fill-opacity="1"><g transform="translate(259.358136, 116.197224)"><g><path d="M 5.3125 0.328125 C 7.601562 0.328125 9.34375 -0.761719 10.234375 -2.527344 L 10.257812 -2.527344 L 10.886719 0 L 14.894531 0 L 14.894531 -11.238281 L 10.167969 -11.238281 L 10.167969 -5.554688 C 10.167969 -3.898438 9.167969 -2.894531 7.578125 -2.894531 C 6.207031 -2.894531 5.421875 -3.703125 5.421875 -5.050781 L 5.421875 -11.238281 L 0.695312 -11.238281 L 0.695312 -4.050781 C 0.695312 -1.328125 2.484375 0.328125 5.3125 0.328125 Z M 5.3125 0.328125 "/></g></g></g><g fill="#8c52ff" fill-opacity="1"><g transform="translate(275.076372, 116.197224)"><g><path d="M 6.273438 4.964844 C 11.519531 4.964844 14.980469 2.375 14.980469 -1.613281 L 14.980469 -11.238281 L 10.257812 -11.238281 L 10.257812 -5.769531 C 10.257812 -4.136719 9.234375 -3.09375 7.707031 -3.09375 C 6.378906 -3.09375 5.53125 -4.070312 5.53125 -5.554688 L 5.53125 -11.238281 L 0.804688 -11.238281 L 0.804688 -4.8125 C 0.785156 -1.894531 2.699219 0.0859375 5.726562 0.0859375 C 7.839844 0.0859375 9.582031 -1 10.234375 -2.742188 L 10.257812 -2.742188 L 10.257812 -1.808594 C 10.257812 0.152344 8.535156 1.414062 5.878906 1.414062 C 4.179688 1.414062 2.222656 0.785156 0.871094 -0.109375 L -0.480469 3.179688 C 1.046875 4.226562 3.703125 4.964844 6.273438 4.964844 Z M 6.273438 4.964844 "/></g></g></g><g fill="#8c52ff" fill-opacity="1"><g transform="translate(290.881677, 116.197224)"><g/></g></g><g fill="#8c52ff" fill-opacity="1"><g transform="translate(295.540536, 116.197224)"><g><path d="M 16.136719 -2.984375 C 17.09375 -3.855469 17.945312 -4.855469 18.597656 -5.921875 L 15.832031 -8.078125 C 15.242188 -6.945312 14.460938 -5.945312 13.546875 -5.117188 L 10.367188 -7.621094 C 13.71875 -8.363281 15.351562 -9.710938 15.351562 -11.738281 C 15.351562 -14.589844 12.367188 -15.941406 9.015625 -15.941406 C 5.203125 -15.941406 2.503906 -14.175781 2.503906 -11.496094 C 2.503906 -10.410156 3.027344 -9.429688 4.117188 -8.425781 C 1.742188 -7.554688 0.433594 -6.164062 0.433594 -4.203125 C 0.433594 -1.328125 3.375 0.371094 7.296875 0.371094 C 9.363281 0.371094 11.476562 -0.0859375 13.347656 -1.132812 L 14.808594 0 L 19.792969 0 Z M 9.234375 -13.066406 C 10.519531 -13.066406 11.5625 -12.519531 11.5625 -11.542969 C 11.5625 -10.539062 10.453125 -9.863281 8.078125 -9.449219 C 7.296875 -10.148438 6.902344 -10.800781 6.902344 -11.433594 C 6.902344 -12.390625 7.90625 -13.066406 9.234375 -13.066406 Z M 7.90625 -2.65625 C 6.097656 -2.65625 4.8125 -3.441406 4.8125 -4.574219 C 4.8125 -5.488281 5.421875 -6.097656 6.578125 -6.425781 L 10.605469 -3.332031 C 9.734375 -2.917969 8.820312 -2.65625 7.90625 -2.65625 Z M 7.90625 -2.65625 "/></g></g></g><g fill="#8c52ff" fill-opacity="1"><g transform="translate(315.32983, 116.197224)"><g/></g></g><g fill="#8c52ff" fill-opacity="1"><g transform="translate(319.988689, 116.197224)"><g><path d="M 9.015625 0.5 C 14.046875 0.5 17.441406 -1.546875 17.441406 -4.921875 C 17.441406 -7.707031 15.460938 -9.167969 10.910156 -9.710938 L 8.449219 -10.015625 C 6.707031 -10.234375 5.964844 -10.625 5.964844 -11.28125 C 5.964844 -12.128906 7.164062 -12.675781 8.90625 -12.695312 C 10.734375 -12.695312 12.519531 -11.957031 13.457031 -10.734375 L 16.332031 -12.847656 C 15.179688 -14.851562 12.28125 -16.113281 8.929688 -16.113281 C 4.203125 -16.113281 0.871094 -14.175781 0.847656 -10.886719 C 0.847656 -8.1875 2.742188 -6.773438 7.121094 -6.183594 L 9.558594 -5.859375 C 11.519531 -5.597656 12.367188 -5.160156 12.367188 -4.441406 C 12.367188 -3.570312 11.171875 -3.003906 9.296875 -3.003906 C 6.925781 -3.003906 4.59375 -4.007812 3.550781 -5.507812 L 0.480469 -3.398438 C 1.699219 -0.871094 5.160156 0.5 9.015625 0.5 Z M 9.015625 0.5 "/></g></g></g><g fill="#8c52ff" fill-opacity="1"><g transform="translate(337.7751, 116.197224)"><g><path d="M 8.839844 0.390625 C 11.519531 0.390625 14.023438 -0.390625 15.265625 -1.523438 L 13.5 -3.722656 C 12.585938 -3.027344 10.84375 -2.546875 9.125 -2.546875 C 7.273438 -2.546875 5.726562 -3.179688 5.355469 -4.484375 L 15.089844 -4.484375 C 15.222656 -4.878906 15.265625 -5.402344 15.265625 -5.835938 C 15.265625 -9.34375 12.390625 -11.648438 8.015625 -11.648438 C 3.507812 -11.648438 0.433594 -9.210938 0.433594 -5.640625 C 0.433594 -2.003906 3.855469 0.390625 8.839844 0.390625 Z M 5.292969 -6.664062 C 5.445312 -7.949219 6.554688 -8.820312 7.992188 -8.820312 C 9.40625 -8.820312 10.472656 -7.949219 10.519531 -6.664062 Z M 5.292969 -6.664062 "/></g></g></g><g fill="#8c52ff" fill-opacity="1"><g transform="translate(353.66749, 116.197224)"><g><path d="M 0.804688 0 L 5.53125 0 L 5.53125 -16.246094 L 0.804688 -16.246094 Z M 0.804688 0 "/></g></g></g><g fill="#8c52ff" fill-opacity="1"><g transform="translate(360.002684, 116.197224)"><g><path d="M 0.804688 0 L 5.53125 0 L 5.53125 -16.246094 L 0.804688 -16.246094 Z M 0.804688 0 "/></g></g></g></svg>