<svg xmlns="http://www.w3.org/2000/svg" xmlns:xlink="http://www.w3.org/1999/xlink" width="500" zoomAndPan="magnify" viewBox="0 0 375 97.5" height="130" preserveAspectRatio="xMidYMid meet" version="1.0"><defs><g/></defs><g fill="#8c52ff" fill-opacity="1"><g transform="translate(2.301227, 70.908474)"><g><path d="M 3.015625 0 L 20.703125 0 L 20.703125 -12.796875 L 25.429688 -16.871094 L 36.433594 0 L 56.078125 0 L 37.410156 -26.246094 L 55.75 -42.058594 L 34.804688 -42.058594 L 20.785156 -29.34375 L 20.703125 -29.34375 L 20.703125 -60.804688 L 3.015625 -60.804688 Z M 3.015625 0 "/></g></g></g><g fill="#8c52ff" fill-opacity="1"><g transform="translate(58.369742, 70.908474)"><g><path d="M 33.09375 1.46875 C 43.117188 1.46875 52.492188 -1.46875 57.136719 -5.707031 L 50.535156 -13.9375 C 47.109375 -11.328125 40.589844 -9.535156 34.152344 -9.535156 C 27.222656 -9.535156 21.4375 -11.898438 20.050781 -16.789062 L 56.484375 -16.789062 C 56.972656 -18.257812 57.136719 -20.214844 57.136719 -21.84375 C 57.136719 -34.964844 46.378906 -43.605469 29.996094 -43.605469 C 13.121094 -43.605469 1.628906 -34.476562 1.628906 -21.109375 C 1.628906 -7.5 14.425781 1.46875 33.09375 1.46875 Z M 19.804688 -24.941406 C 20.375 -29.75 24.535156 -33.011719 29.914062 -33.011719 C 35.210938 -33.011719 39.203125 -29.75 39.367188 -24.941406 Z M 19.804688 -24.941406 "/></g></g></g><g fill="#8c52ff" fill-opacity="1"><g transform="translate(117.861047, 70.908474)"><g><path d="M 23.472656 18.582031 C 43.117188 18.582031 56.078125 8.882812 56.078125 -6.03125 L 56.078125 -42.058594 L 38.390625 -42.058594 L 38.390625 -21.597656 C 38.390625 -15.488281 34.558594 -11.574219 28.855469 -11.574219 C 23.882812 -11.574219 20.703125 -15.242188 20.703125 -20.785156 L 20.703125 -42.058594 L 3.015625 -42.058594 L 3.015625 -18.011719 C 2.933594 -7.089844 10.105469 0.324219 21.4375 0.324219 C 29.34375 0.324219 35.863281 -3.75 38.308594 -10.269531 L 38.390625 -10.269531 L 38.390625 -6.765625 C 38.390625 0.570312 31.949219 5.296875 22.007812 5.296875 C 15.648438 5.296875 8.3125 2.933594 3.261719 -0.40625 L -1.792969 11.898438 C 3.914062 15.8125 13.855469 18.582031 23.472656 18.582031 Z M 23.472656 18.582031 "/></g></g></g><g fill="#8c52ff" fill-opacity="1"><g transform="translate(177.026371, 70.908474)"><g><path d="M 4.15625 0 L 45.96875 0 C 59.988281 0 67.894531 -5.867188 67.894531 -16.058594 C 67.894531 -23.148438 63.820312 -28.039062 56.648438 -29.667969 L 56.648438 -29.832031 C 63.003906 -31.625 66.589844 -36.1875 66.589844 -42.382812 C 66.589844 -52.570312 58.605469 -58.359375 44.585938 -58.359375 L 4.15625 -58.359375 Z M 23.800781 -34.804688 L 23.800781 -46.214844 L 39.613281 -46.214844 C 44.257812 -46.214844 46.949219 -44.175781 46.949219 -40.589844 C 46.949219 -36.921875 44.257812 -34.804688 39.613281 -34.804688 Z M 23.800781 -12.144531 L 23.800781 -24.371094 L 40.425781 -24.371094 C 45.398438 -24.371094 48.253906 -22.089844 48.253906 -18.09375 C 48.253906 -14.34375 45.398438 -12.144531 40.425781 -12.144531 Z M 23.800781 -12.144531 "/></g></g></g><g fill="#8c52ff" fill-opacity="1"><g transform="translate(246.867538, 70.908474)"><g><path d="M 19.074219 1.140625 C 28.445312 1.140625 35.863281 -2.691406 39.042969 -8.558594 L 39.125 -8.558594 L 39.285156 -7.5 C 40.101562 -2.363281 45.480469 1.140625 52.980469 1.140625 C 58.359375 1.140625 63.574219 -0.164062 66.511719 -2.769531 L 63.496094 -11.003906 C 62.351562 -10.027344 60.722656 -9.453125 59.417969 -9.453125 C 57.460938 -9.453125 56.320312 -10.675781 56.320312 -12.714844 L 56.320312 -26.488281 C 56.320312 -37.25 46.214844 -43.605469 30.238281 -43.605469 C 17.359375 -43.605469 6.601562 -38.632812 2.199219 -31.054688 L 12.46875 -25.1875 C 16.789062 -29.667969 23.636719 -32.765625 30.648438 -32.765625 C 35.617188 -32.765625 38.960938 -31.054688 38.960938 -28.609375 C 38.960938 -27.386719 37.820312 -26.488281 36.027344 -26.328125 L 24.453125 -25.1875 C 9.699219 -23.800781 1.304688 -18.339844 1.304688 -10.433594 C 1.304688 -3.179688 8.230469 1.140625 19.074219 1.140625 Z M 26 -9.699219 C 21.679688 -9.699219 18.992188 -11.003906 18.992188 -13.121094 C 18.992188 -15.242188 21.597656 -16.789062 27.386719 -17.28125 L 38.714844 -18.339844 L 38.714844 -17.523438 C 38.714844 -12.960938 33.582031 -9.699219 26 -9.699219 Z M 26 -9.699219 "/></g></g></g><g fill="#8c52ff" fill-opacity="1"><g transform="translate(313.530404, 70.908474)"><g><path d="M 23.472656 18.582031 C 43.117188 18.582031 56.078125 8.882812 56.078125 -6.03125 L 56.078125 -42.058594 L 38.390625 -42.058594 L 38.390625 -21.597656 C 38.390625 -15.488281 34.558594 -11.574219 28.855469 -11.574219 C 23.882812 -11.574219 20.703125 -15.242188 20.703125 -20.785156 L 20.703125 -42.058594 L 3.015625 -42.058594 L 3.015625 -18.011719 C 2.933594 -7.089844 10.105469 0.324219 21.4375 0.324219 C 29.34375 0.324219 35.863281 -3.75 38.308594 -10.269531 L 38.390625 -10.269531 L 38.390625 -6.765625 C 38.390625 0.570312 31.949219 5.296875 22.007812 5.296875 C 15.648438 5.296875 8.3125 2.933594 3.261719 -0.40625 L -1.792969 11.898438 C 3.914062 15.8125 13.855469 18.582031 23.472656 18.582031 Z M 23.472656 18.582031 "/></g></g></g></svg>